<svg width="316" height="42" xmlns="http://www.w3.org/2000/svg" xmlns:xlink="http://www.w3.org/1999/xlink"><defs><path id="a" d="M0 0h316v43H0z"/></defs><g transform="matrix(1 0 0 -1 0 43)" fill="none" fill-rule="evenodd"><mask id="b" fill="#fff"><use xlink:href="#a"/></mask><g mask="url(#b)" fill-rule="nonzero"><path d="M215.46 41.85c1.85-2.1 3.86-4 5.88-6a10.78 10.78 0 0 0 5.73 4.33c3.72 1.38 5.91.65 9.73-.6a.59.59 0 0 0 .3-.79c-2.13-4.78-4.89-8.36-10.19-8a81.41 81.41 0 0 1 12-8.66 20 20 0 0 0 7.14 4.32c3.64 1.4 7 1.3 10.46 1a.6.6 0 0 0 .37-1c-2.76-4.25-9.13-5.91-14.25-6.35 1.71-.86 3.48-1.65 5.28-2.34a.54.54 0 0 0 .33-.35c3.32 1.92 7.5 1.18 10.91-.21s7.23-4.09 8.77-7.71a.6.6 0 0 0 .08-1.13A15.18 15.18 0 0 0 256 8c-3.52 1.46-6.35 4.28-8.7 7.23-1.71.68-3.39 1.43-5.05 2.23 1.36-1.19 2.64-2.36 3.07-4.37.78-3.71-1.58-7.59-2.84-10.91a.61.61 0 0 0-.88-.18c-2.4 2.34-5 4.89-6.06 8.17-1.13 3.47.6 6.66 3 9.07a.83.83 0 0 0 .16.12 95.22 95.22 0 0 0-14.32 9.89c-.92.75-1.82 1.54-2.71 2.33.26-2.73-.93-5.82-2.15-8-2.51-4.37-7.33-5.39-11.72-7a.61.61 0 0 0-.82.64c.51 3.77 1.36 7.64 3.8 10.65 2.25 2.77 5.64 4.29 9 5.4a90.943 90.943 0 0 0-5.3 5.46c-2.88 3.23-6.08 7-7.27 11.22a.64.64 0 0 0 .59.81 2 2 0 0 0 .56.34c.457.15.953.12 1.39-.08a.54.54 0 0 0 .31-.72c.78-3.19 3.24-6.02 5.4-8.45z" fill="#C6E69F"/><path d="M71.56 36.06a1.74 1.74 0 0 0-.1-.19c.86-2.69 1.57-5.58 1-8.38a29.08 29.08 0 0 0-1.37-4.27c-.25-.69-.47-1.39-.73-2.08a6.2 6.2 0 0 1-.53-2.14.22.22 0 0 0-.41-.06c-2 5.53-1.09 11.91 1.59 17a.23.23 0 0 0 .12.22l.09.17c.13.23.47 0 .34-.25M76.46 32.19a33.44 33.44 0 0 0-4.64 6c-2.43 3.87-3.33 5.74-3.33 5.74l-1.06-.55A36.2 36.2 0 0 1 72.06 36a28.6 28.6 0 0 1 4-4.31l.35.53" fill="#B4DD7F"/><path d="M96.86 32.1a3.71 3.71 0 0 0 1.84-1.26 4 4 0 0 0 .68-2.37c-.08-2.4-2.16-3.06-4.3-3 2-1.27 3.71-4.24 2.27-6.39l-.1-.14a3.82 3.82 0 0 0-3.18-1.84 9.21 9.21 0 0 0-3.66.91 7.2 7.2 0 0 0 .46-4 4.35 4.35 0 0 0-2.44-3.25 5.2 5.2 0 0 0-4.67.66 13.48 13.48 0 0 0-4.47 4.84c-2.72 4.73-2.8 10.4-3.78 15.62a.21.21 0 0 0 .2.22 86.73 86.73 0 0 0 16 .6c.89 0 1.78-.07 2.67-.14a9.45 9.45 0 0 0 2.53-.43" fill="#C6E69F"/><path d="M76.61 31.36S78 24.49 80 23c2-1.49 1.89 1.4 1.2 2.6l-.68 1.19s2.64-2.48 3.88-1.16c1.24 1.32-3.12 2.9-3.12 2.9s3.67-.51 3.77.88c.1 1.39-3.48 1.4-5.51 1.54a11.76 11.76 0 0 0-2.9.46" fill="#E9F7DE"/><path d="M89 39.08c.25 0 .17-.39-.06-.41a16.9 16.9 0 0 1-4.62-1.24 14.79 14.79 0 0 0-7.58-.86 6.12 6.12 0 0 0-3.22 1.31.16.16 0 0 0-.06.08.19.19 0 0 0 0 .3 11.31 11.31 0 0 0 7.11 2.36c2.9.09 5.65-.93 8.44-1.54M285.29 22a.88.88 0 0 0 .63.84 1.12 1.12 0 0 0 1.17-.53.66.66 0 0 0-.23-.89.79.79 0 0 0-.76-.32 1 1 0 0 0-.81.9M293.63 18.89a1 1 0 0 0 .19 1.4 1.13 1.13 0 0 0 1.43.12 1 1 0 0 0 .38-.73.93.93 0 0 0 0-.55 1.11 1.11 0 0 0-.87-.77 1.14 1.14 0 0 0-1.16.53M292.34 28.65c.28.52 1 .45 1.45.09a1 1 0 0 0 .44-.58.89.89 0 0 0-.38-1.09c-.78-.4-1.92.8-1.51 1.58M284.61 29.08a1.11 1.11 0 1 0 2.2.3.68.68 0 0 0-.06-.29.74.74 0 0 0-.06-.28 1.11 1.11 0 0 0-1-.75 1.14 1.14 0 0 0-1.07 1M290.68 17.33c.12.201.289.37.49.49a.8.8 0 0 0 .31.14 1 1 0 0 0 .78 0 .93.93 0 0 0 .42-.46c.268-.343.3-.815.08-1.19a1.23 1.23 0 0 0-1.51-.35 1 1 0 0 0-.57 1.41" fill="#B4DD7F"/><path d="M59.32 22.9a2 2 0 0 0-2-1.73 3.06 3.06 0 0 0-.06-2.43 2.07 2.07 0 0 0-2.36-1.17 11.4 11.4 0 0 1-1.25.41c-.64.08-.89-.84-1.16-1.27a1.92 1.92 0 0 0-2-.78c-1.37.28-1.73 2.42-1.72 3.47A8.58 8.58 0 0 0 50 23.54a.33.33 0 0 0 0 .14c.31 1.36 2 1.67 3.15 1.93 1.37.39 2.82.39 4.19 0a2.86 2.86 0 0 0 2-2.68M62.2 33.38c1.12-.68 1.5-1.66 1.08-2.36-.42-.7-1-.72-1.33-1 .44-.68.85-1.71.42-2.4-.61-1-1.92-.78-2.79-.23a10.1 10.1 0 0 0-3 3.18 3.48 3.48 0 0 0-.43 1.43 4.17 4.17 0 0 0 .85 2.66.17.17 0 0 0 .2.07c1.47 1.18 3.43 2.5 5.45 2 1.85-.45 1.45-2.32-.42-3.36M35.36 17.42c1.14-1 2.67-2.36 2.89-4 .15-1.08-.59-1.94-1.72-1.53-.31.11-.61.27-.93.36-.32.09-.92-.49-1.17-.74a2.77 2.77 0 0 0-1.43-.84c-1.16-.23-1.93 1.45-2 2.45a3.17 3.17 0 0 0-2.4.07 1.89 1.89 0 0 0-.88 2c.41 1.82 3.26 2.44 4.66 3a.19.19 0 0 0 .18 0c.48.067.969.044 1.44-.07.44-.07 1.18-.18 1.39-.65" fill="#C6E69F"/><path d="M57.57 35.09a.83.83 0 0 0-.33-.67 1 1 0 0 0 .56-.75c0-.3-.32-.5-.56-.57a1.22 1.22 0 0 0-.63 0c.17-.31.22-.64-.1-.82-.72-.41-1.6.69-2 1.26h-.34a12 12 0 0 0-2.59 0 47.51 47.51 0 0 0-10.5 1.74c2.51-2.66 5.19-5.16 7.71-7.84a.33.33 0 0 0 .06-.1 4.16 4.16 0 0 0 1.76-.34 4.3 4.3 0 0 0 1.2-.58c.28-.23.56-.68.22-1a1.09 1.09 0 0 0-.91-.26.58.58 0 0 0 0-.85c-.34-.31-.83-.16-1.25.08a1.88 1.88 0 0 0-.39-1.09.32.32 0 0 0-.45 0 3.19 3.19 0 0 0-1.1 3.1 105.29 105.29 0 0 0-12.11 13.12 36.13 36.13 0 0 0 .33-4c.09-1.84.11-3.68.05-5.52a41.46 41.46 0 0 0-1.77-11c.42-.59 1.17-1.36.76-2.08-.27-.48-.74-.31-1.11 0-.19-.52-.54-1-1.15-.89-.61.11-.59.87-.46 1.48-.46-.11-1-.08-1 .43 0 .77 1 1.37 1.69 1.56 2.76 7.18 1.84 14.87.84 22.37a84.1 84.1 0 0 0-7.75 11.82l-.13.19a.37.37 0 0 0 .16.55c.2.105.424.156.65.15a.43.43 0 0 0 .17 0 .38.38 0 0 0 .49-.2c.34-.778.73-1.533 1.17-2.26a.18.18 0 0 0 .08-.05c3.35-2.82 7.6-3.94 11.89-4.37a17 17 0 0 0 1.74-.14c.89-.06 1.78-.09 2.65-.11.221.45.569.825 1 1.08.27.13.76.18.91-.15a.54.54 0 0 0-.07-.53.46.46 0 0 0 .37-.4c0-.38-.24-.54-.57-.62.2-.25.3-.54 0-.8s-1 .2-1.32.54a23.46 23.46 0 0 0-8.64.12 21 21 0 0 0-6.44 2.9c.57-.9 1.13-1.8 1.73-2.68 1.59-2.35 3.29-4.63 5-6.9.66-.86 1.34-1.7 2.05-2.52a45.72 45.72 0 0 1 7.34-2.15c2.69-.42 5.42-.35 8.13-.57a3.2 3.2 0 0 0 2.34.79c.28 0 .65-.15.67-.49" fill="#B4DD7F"/><path d="M39.43 17.42a.18.18 0 0 0-.25-.15 6.11 6.11 0 0 0-3 5.43.15.15 0 0 0 .13.16.21.21 0 0 0 .22-.05c1.39-1.51 2.8-3.27 2.85-5.39M34.94 26.37a5.14 5.14 0 0 0-1.64-2.77 11.64 11.64 0 0 0-4.22-2.6.15.15 0 0 0-.21.16c.22 2.47 3.52 4.76 5.87 5.39.11 0 .23 0 .2-.15M42.4 24.3c0-.13-.11-.17-.21-.14a8.52 8.52 0 0 0-3.5 2.24 5.56 5.56 0 0 0-1.62 2.6.1.1 0 0 0 0 .1c0 .09 0 .17.15.14 1.9-.52 4.69-2.75 5.16-5M34.41 31.12a7.17 7.17 0 0 0-3.15-3.25 9.58 9.58 0 0 0-4.6-1.09.15.15 0 0 0-.13.25 8.44 8.44 0 0 0 3 2.77c1.49.86 3.07.73 4.57 1.41.11.18.41.12.33-.09M46.35 22.91c0-.17-.16-.2-.29-.08-1.65 1.54-2.81 4.1-2.1 6 0 .09.11.1.19.06a.23.23 0 0 0 .11-.07 8.8 8.8 0 0 0 2.09-5.9M53.36 29.48a.17.17 0 0 0-.1-.12c-1.88-.73-5.09-.8-6.54 1.09a.19.19 0 0 0 .06.29 6.35 6.35 0 0 0 3.52.61 7.8 7.8 0 0 0 3-1.61.19.19 0 0 0 0-.26M42.28 40.7c.06-.11 0-.28-.13-.24a8.61 8.61 0 0 0-3.47 2 8.32 8.32 0 0 0-2.29 3.58c0 .15.08.22.19.18.89 0 1.8-.91 2.53-1.46a11.36 11.36 0 0 0 3.17-4.09M55.7 38.07a12.08 12.08 0 0 0-2.82-2.26 10.53 10.53 0 0 0-3.3-1h-.1a.17.17 0 0 0-.13.3c1.68 1.65 3.83 3.46 6.24 3.24a.16.16 0 0 0 .11-.26M55.36 29.25a.15.15 0 0 0-.2-.19A8.06 8.06 0 0 0 51.77 33c-.06.12 0 .2.07.23a.13.13 0 0 0 .17 0 6 6 0 0 0 3.35-4M33.64 41.09c-.13-.51-.17-1-.27-1.52a6.66 6.66 0 0 0-1.65-3.32c-1.46-1.9-3.69-2.92-5.74-4a.2.2 0 0 0-.29.21A17 17 0 0 0 28.44 38a9.85 9.85 0 0 0 5 3.38c.14.05.27-.11.24-.24M197.45 13.47a2 2 0 0 0-2.49-.86 3 3 0 0 0-1-2.23 2.08 2.08 0 0 0-2.63-.21c-.317.305-.65.592-1 .86-.57.3-1.15-.45-1.55-.75a1.93 1.93 0 0 0-2.1 0c-1.17.77-.7 2.89-.3 3.86a8.63 8.63 0 0 0 2.64 3.4.25.25 0 0 0 .06.13c.79 1.15 2.45.8 3.63.61a7.64 7.64 0 0 0 3.88-1.6 2.86 2.86 0 0 0 .83-3.22M204.05 22.1c.78-1.05.76-2.1.11-2.59-.65-.49-1.16-.31-1.6-.41.15-.8.15-1.91-.5-2.38-.94-.68-2.08 0-2.68.83a10.06 10.06 0 0 0-1.55 4.06 3.36 3.36 0 0 0 .1 1.5 4.12 4.12 0 0 0 1.73 2.12.17.17 0 0 0 .22 0c1.8.55 4.12 1 5.8-.18 1.68-1.18.48-2.69-1.64-3M173.18 17.36c.67-1.38 1.59-3.19 1.2-4.75a1.27 1.27 0 0 0-2.17-.77c-.25.22-.46.48-.72.68-.26.2-1-.11-1.37-.24a2.69 2.69 0 0 0-1.62-.28c-1.16.23-1.25 2.07-.94 3a3.19 3.19 0 0 0-2.2 1 1.88 1.88 0 0 0-.07 2.19c1.06 1.53 3.94 1 5.45 1a.16.16 0 0 0 .15-.09 3.63 3.63 0 0 0 1.25-.56c.38-.23 1-.6 1-1.12v-.05M198.65 40.86c.72-.52 1.68-1.5 1.15-2.36a2.39 2.39 0 0 0-2.6-.65c.21-.94 0-2.38-1.38-2a3.34 3.34 0 0 0-1.89 2.33 5.08 5.08 0 0 0-.3 1.42.14.14 0 0 0-.06.14 4.78 4.78 0 0 0 1.6 2.39 3 3 0 0 0 .9.62 2.39 2.39 0 0 0 2.65.49 1.45 1.45 0 0 0-.07-2.42" fill="#C6E69F"/><path d="M200.39 25.42a.85.85 0 0 0-.56-.5.94.94 0 0 0 .24-.9c-.1-.29-.48-.34-.73-.32a1.22 1.22 0 0 0-.58.24c0-.35 0-.68-.41-.73-.81-.11-1.22 1.24-1.38 1.92l-.31.12c-.83.245-1.632.58-2.39 1a47 47 0 0 0-9.08 5.54c1.33-3.41 2.87-6.73 4.2-10.15a.27.27 0 0 0 0-.12 4.24 4.24 0 0 0 1.49-1 4.42 4.42 0 0 0 .89-1c.18-.32.26-.84-.17-1a1.07 1.07 0 0 0-.94.1c.09-.33.06-.65-.31-.78s-.83.15-1.13.53a1.87 1.87 0 0 0-.77-.86.31.31 0 0 0-.42.16 3.2 3.2 0 0 0 .17 3.33 106.87 106.87 0 0 0-6.32 16.72 34 34 0 0 0-1.19-3.83c-.6-1.74-1.28-3.46-2-5.14a41.34 41.34 0 0 0-5.77-9.54c.17-.71.58-1.7-.07-2.22-.43-.34-.8 0-1 .4-.37-.41-.89-.74-1.39-.39-.5.35-.23 1 .12 1.54-.47.07-.93.28-.77.77.25.73 1.43.91 2.15.81 5.26 5.66 7.33 13.13 9.16 20.47a83.65 83.65 0 0 0-2.75 13.87l-.05.22a.37.37 0 0 0 .35.46 1.4 1.4 0 0 0 .67-.11.34.34 0 0 0 .14-.09c.2 0 .365-.16.37-.36A19.51 19.51 0 0 1 180 52a.18.18 0 0 0 .05-.07c2-3.88 5.57-6.5 9.38-8.51a16.45 16.45 0 0 0 1.57-.79c.81-.38 1.61-.74 2.42-1.09.37.333.828.552 1.32.63.3 0 .77-.12.79-.48a.57.57 0 0 0-.26-.47.44.44 0 0 0 .19-.5c-.1-.37-.43-.41-.76-.36.09-.32.08-.62-.29-.75-.52-.18-.83.55-1 1a23.43 23.43 0 0 0-8 3.34 20.93 20.93 0 0 0-4.88 5.1c.19-1 .37-2.09.59-3.13.6-2.78 1.32-5.52 2.05-8.26.28-1.05.6-2.09.95-3.11a45.62 45.62 0 0 1 6-4.74c2.34-1.4 4.9-2.36 7.33-3.58.81.28 1.697.23 2.47-.14.25-.13.54-.39.43-.71" fill="#B4DD7F"/><path d="M177 15.83a.18.18 0 0 0-.29 0 6.11 6.11 0 0 0-.69 6.14.16.16 0 0 0 .18.1.2.2 0 0 0 .18-.13c.72-1.92 1.37-4.08.62-6.07M176.15 25.81a5.17 5.17 0 0 0-2.57-1.95 11.73 11.73 0 0 0-4.89-.86.15.15 0 0 0-.13.23c1.12 2.21 5 3.09 7.45 2.8.12 0 .2-.12.14-.22M182.28 21.11c0-.14-.16-.13-.24-.06a8.51 8.51 0 0 0-2.41 3.38 5.72 5.72 0 0 0-.52 3.06.28.28 0 0 0 .06.08c0 .09.1.14.2.07 1.56-1.19 3.31-4.3 2.91-6.53M177.43 30.42a7.09 7.09 0 0 0-4.14-1.83 9.53 9.53 0 0 0-4.67.71.15.15 0 0 0 0 .28A8.44 8.44 0 0 0 172.4 31c1.7.24 3.11-.47 4.76-.4.17.13.42-.05.27-.21M185.42 18.34c-.06-.16-.22-.13-.3 0-1 2.05-1.06 4.85.31 6.34a.11.11 0 0 0 .19 0 .2.2 0 0 0 .08-.11 8.78 8.78 0 0 0-.28-6.24M194.39 21.79a.16.16 0 0 0-.14-.06c-2 0-5 1.16-5.66 3.45a.19.19 0 0 0 .17.25 6.37 6.37 0 0 0 3.49-.75 7.86 7.86 0 0 0 2.19-2.62.2.2 0 0 0-.05-.27M188.32 36.35c0-.13-.11-.25-.22-.17a8.67 8.67 0 0 0-2.45 3.18 8.29 8.29 0 0 0-.78 4.18c0 .15.15.17.24.09.83-.33 1.33-1.51 1.81-2.3a11.48 11.48 0 0 0 1.4-5M199.78 28.88a12.68 12.68 0 0 0-3.46-1 11.08 11.08 0 0 0-3.45.29h-.09a.17.17 0 0 0 0 .33c2.18.9 4.85 1.77 7 .67a.16.16 0 0 0 0-.29M196.15 20.84a.15.15 0 0 0-.25-.1 8.09 8.09 0 0 0-1.68 4.9.15.15 0 0 0 .15.18.14.14 0 0 0 .18 0 6 6 0 0 0 1.6-5M180.45 40c-.31-.42-.53-.88-.82-1.31a6.74 6.74 0 0 0-2.77-2.46c-2.06-1.22-4.52-1.32-6.84-1.6a.2.2 0 0 0-.18.31 16.93 16.93 0 0 0 4.62 4.1 9.87 9.87 0 0 0 5.86 1.27.2.2 0 0 0 .13-.31M242.79 35.11a1.6 1.6 0 0 0-.85 2 2.62 2.62 0 0 0-1.93.64 1.64 1.64 0 0 0-.3 2.13c.243.278.467.572.67.88.23.48-.43.9-.7 1.21a1.51 1.51 0 0 0-.1 1.71c.6 1 2.41.77 3.25.51a7.16 7.16 0 0 0 3-1.92h.11c1-.57.8-2 .7-2.93a6.22 6.22 0 0 0-1.16-3.34 2.53 2.53 0 0 0-2.69-.9M250.75 30.13c-.84-.72-1.73-.77-2.18-.25-.45.52-.34 1-.45 1.33-.66-.17-1.61-.24-2.05.29-.62.75-.12 1.76.55 2.32a8.49 8.49 0 0 0 3.38 1.55 2.91 2.91 0 0 0 1.28 0 3.59 3.59 0 0 0 1.9-1.34.15.15 0 0 0 0-.19c.57-1.49 1.12-3.43.19-4.93-.93-1.5-2.25-.56-2.61 1.22M265.75 35.27c-.38-.63-1.1-1.49-1.84-1.08a2.16 2.16 0 0 0-.71 2.18c-.75-.22-1.93-.13-1.7 1.08a2.68 2.68 0 0 0 1.77 1.73 3.8 3.8 0 0 0 1.13.31.13.13 0 0 0 .12.06 4 4 0 0 0 2.05-1.25 2.67 2.67 0 0 0 .57-.74 2.1 2.1 0 0 0 .58-2.23 1.15 1.15 0 0 0-2-.06M286.32 44c.39-.62.85-1.66.19-2.17a2 2 0 0 0-2.21.27c-.12-.78-.69-1.85-1.65-1.11a2.8 2.8 0 0 0-.78 2.37c.01.4.078.798.2 1.18a.12.12 0 0 0 0 .13A3.87 3.87 0 0 0 284 46c.276.13.575.205.88.22a2 2 0 0 0 2.2-.41 1.21 1.21 0 0 0-.77-1.85" fill="#C6E69F"/><path d="M252.79 34a.76.76 0 0 0-.72-.25c-.24.07-.31.37-.31.58a1 1 0 0 0 .17.49c-.29-.05-.56 0-.62.29-.14.66.94 1.08 1.49 1.24.022.091.049.181.08.27a9.41 9.41 0 0 0 .69 2 38.74 38.74 0 0 0 4 7.75c-2.71-1.28-5.34-2.73-8.07-4h-.09a3.34 3.34 0 0 0-.74-1.27 3.8 3.8 0 0 0-.76-.79c-.25-.16-.67-.26-.84.08a.92.92 0 0 0 0 .78c-.26-.1-.53-.09-.66.21s.08.69.37 1c-.3.117-.56.319-.75.58a.26.26 0 0 0 .11.35 2.62 2.62 0 0 0 2.7.08c4.27 2.43 9.31 7 25.36 9.73 0 0-1.46-.11 0 .08 0 0 .29-1.19-.39-1.35h-.06c-3-1.89-5-4.93-6.43-8.16a10.33 10.33 0 0 0-.55-1.33c-.27-.68-.51-1.37-.75-2a2 2 0 0 0 .59-1c0-.24 0-.64-.34-.68a.48.48 0 0 0-.4.19.36.36 0 0 0-.4-.18c-.31.06-.36.32-.34.6-.25-.09-.5-.1-.63.2-.13.3.4.71.76.89a19.28 19.28 0 0 0 2.28 6.71 16.93 16.93 0 0 0 3.89 4.29c-.84-.22-1.69-.42-2.53-.66-2.23-.65-4.44-1.4-6.64-2.15-.84-.29-1.67-.61-2.48-1a36.46 36.46 0 0 1-3.54-5.18c-1-2-1.65-4.15-2.51-6.21a2.65 2.65 0 0 0 0-2c-.09-.21-.29-.46-.56-.39a.72.72 0 0 0-.38.21z" fill="#B4DD7F"/><path d="M277.82 47.63a4.34 4.34 0 0 0 1.8-2 9.75 9.75 0 0 0 1.06-4 .13.13 0 0 0-.18-.13c-1.91.77-2.92 4-2.86 6 0 .1.09.17.18.13M273.92 48.36a6 6 0 0 0 1.81-3.29 7.92 7.92 0 0 0-.24-3.91.13.13 0 0 0-.23 0 7 7 0 0 0-1.48 3c-.32 1.4.17 2.61 0 4-.12.13 0 .35.15.24M249.62 38a.13.13 0 0 0-.07.1c-.1 1.65.67 4.17 2.5 4.82.1 0 .21 0 .21-.12a5.14 5.14 0 0 0-.41-2.89 6.49 6.49 0 0 0-2-1.95.15.15 0 0 0-.21 0M269.89 39.14a11.12 11.12 0 0 0-1 4.57 5.75 5.75 0 0 0 1.17 3.2c0 .14.21.25.29.1.35-.66.58-1.42.9-2.1.309-.65.47-1.36.47-2.08a5.57 5.57 0 0 0-1.55-3.75.15.15 0 0 0-.26.06M256.24 34a11.11 11.11 0 0 0-1 2.75 9.67 9.67 0 0 0 0 2.79.14.14 0 0 0 0 .07c0 .12.18.17.25 0 .83-1.72 1.67-3.84 1-5.61a.12.12 0 0 0-.22 0M249.14 36.65c-.1 0-.16.09-.08.16a8.34 8.34 0 0 0 4 1.61c.1 0 .15 0 .15-.09v-.12a6.16 6.16 0 0 0-4.06-1.56M99.48 41.19a6.81 6.81 0 0 0-.7 3.53 8.5 8.5 0 0 0 1 3.55c0 .1.15.08.19 0a8 8 0 0 0 .49-3.21c0-1.38-.68-2.37-.84-3.68.07-.15-.08-.32-.17-.17" fill="#C6E69F"/><path d="M279.05 38.61s-3-7.31-1.44-11.29a7.15 7.15 0 0 1 5.54-4.5 7 7 0 0 1-.21-.8 8.42 8.42 0 0 0-7.43 8.51s-2.1-6.06-5.73-9c-3.63-2.94-6.08-3.3-6.08-3.3l-.43.77a14.74 14.74 0 0 1 7.33 5.89 32.64 32.64 0 0 1 4.47 10s-2.83-3.3-5.91-3.83a6 6 0 0 0-4.84 1l-.1.49s3.36-2.06 7.44.89a16.51 16.51 0 0 1 5.54 7.12l1.85-1.91M122 18.91a5.83 5.83 0 0 0-2.36-2.43s.4-.3.35-.43a5.94 5.94 0 0 1 2.7 2.51 12 12 0 0 1 .62 2.68 20 20 0 0 1 .57-4.32 12.27 12.27 0 0 1 1.46-3.69l.44.14a49.1 49.1 0 0 0-1.54 5 12.2 12.2 0 0 0-.38 3.39 4.16 4.16 0 0 0 .56 2.28l-2.15.17c-.01.07.88-3.4-.27-5.3zM131.63 20.69a6 6 0 0 0-.32-3.39s.49 0 .53-.12a6 6 0 0 1 .54 3.67 11.94 11.94 0 0 1-1.18 2.49 19.38 19.38 0 0 1 3.13-3 11.89 11.89 0 0 1 3.42-1.94l.26.39a45.86 45.86 0 0 0-4.3 2.91 12 12 0 0 0-2.41 2.39 4.13 4.13 0 0 0-1 2.13L128.54 25c-.06 0 2.79-2.11 3.09-4.31z" fill="#B4DD7F"/><path d="M119.18 14a2.3 2.3 0 0 1-3.5 1 2.27 2.27 0 0 1-.3-3.39 2.4 2.4 0 0 1 2.77-.51 2.25 2.25 0 0 1 1 2.93M123.35 11.34a2.12 2.12 0 0 1-2-2.45c0-.1.06-.19.09-.29a1.72 1.72 0 0 1 .08-.28c.94-2.36 5.24-1.87 5 .82a2.67 2.67 0 0 1-3.09 2.2" fill="#DAEFC0"/><path d="M123.79 33.32a3.88 3.88 0 0 0 2.21 1.61 4.88 4.88 0 0 0 4-.32 6.3 6.3 0 0 0 2-1.34 2.69 2.69 0 0 0 .33-.41c.43-.61.56-1.383.35-2.1a2.53 2.53 0 0 0-.41-.84 3.38 3.38 0 0 0-2.53-1.74 5.92 5.92 0 0 0-5.83 2 2.74 2.74 0 0 0-.11 3.13M118.4 31.89s-1.54 5.44-5.62 6.53c-4.08 1.09-8.4-.55-10.94-.9a10.87 10.87 0 0 0-4.35.22s-.65-3.08 1.69-4.71 3.22-.08 4.56-1.8c1.34-1.72 4.21-5 8.61-3.93a9.19 9.19 0 0 1 6.05 4.59" fill="#B4DD7F"/><path d="M115.27 33.18a9.37 9.37 0 0 1-3.78 1.08c-2.54.29-3.38-.14-3.38-.14a8.31 8.31 0 0 1 3.63-1.12 11.92 11.92 0 0 1 3.53.17" fill="#E9F7DE"/><path d="M130.61 43.11s1.78 7.91-.46 11.63a7.1 7.1 0 0 1-6.28 3.49c0-.09.07.84.07.84a8.2 8.2 0 0 0 5.57-1.65 8.33 8.33 0 0 0 3.28-5.53s1.08 6.5 4.21 10.11c3.13 3.61 5.52 4.46 5.52 4.46l.56-.7a15.36 15.36 0 0 1-6.34-7.29 34 34 0 0 1-2.8-10.86s2.28 3.85 5.26 5a6.06 6.06 0 0 0 5-.12l.18-.48s-3.69 1.44-7.28-2.28a17.32 17.32 0 0 1-4.34-8.2l-2.16 1.58M131.54 36.58s3.72 3.21 7.85 1.69c4.13-1.52 5.57-3.19 7.67-4.69 2.1-1.5 3.45-2 3.24-2.3-.21-.3-6-3.45-11.58-1.17a13.08 13.08 0 0 0-7.18 6.47" fill="#B4DD7F"/><path d="M135 36.35a8.15 8.15 0 0 0 5.31-1.3 31.36 31.36 0 0 1 5.8-3 8.24 8.24 0 0 1 1.49-.45 30.73 30.73 0 0 0-6.35 2.4 16.72 16.72 0 0 1-4.47 2.09 5.06 5.06 0 0 1-1.8.28M117.33 47.82a8.2 8.2 0 0 0 4.84-2.55 32.34 32.34 0 0 1 4.89-4.37 8.6 8.6 0 0 1 1.33-.79 30.48 30.48 0 0 0-5.55 3.89 16.79 16.79 0 0 1-3.84 3.11 5 5 0 0 1-1.68.71" fill="#E9F7DE"/><path d="M124.47 37a8.23 8.23 0 0 0 3.27-5.1 9.69 9.69 0 0 0-.22-2.63 12.05 12.05 0 0 0-.54-2.59v-.31a.22.22 0 0 0-.38-.11 13.54 13.54 0 0 0-3.14 4.74 8.23 8.23 0 0 0 .64 6 .23.23 0 0 0 .37.07M114.05 48.87s4.39 2.21 8-.26c3.61-2.47 4.63-4.44 6.3-6.4s2.86-2.79 2.59-3c-.27-.21-6.69-1.89-11.51 1.67a13.06 13.06 0 0 0-5.41 8" fill="#B4DD7F"/><path d="M117.33 47.82a8.2 8.2 0 0 0 4.84-2.55 31.51 31.51 0 0 1 4.89-4.36 9.4 9.4 0 0 1 1.33-.8 30.48 30.48 0 0 0-5.55 3.89 16.51 16.51 0 0 1-3.84 3.11c-.51.34-1.08.58-1.68.71" fill="#E9F7DE"/><path d="M102.89 46.16a8.2 8.2 0 0 0 6 .71 9.64 9.64 0 0 0 2.26-1.36 11.3 11.3 0 0 0 2.09-1.61l.26-.18a.23.23 0 0 0-.07-.39 13.58 13.58 0 0 0-5.61-.71 8.26 8.26 0 0 0-5 3.18.23.23 0 0 0 .1.36M132.74 42.52a12 12 0 0 0 8.82 4.76c6.05.5 10.2-2.58 10-3.18-.2-.6-2.95-3.35-9.21-3.47-6.26-.12-9.65 1.89-9.65 1.89M119.33 26.1h.07a.23.23 0 0 0 .27.06c.23-.13.15-.4.12-.61-.03-.21 0-.25-.07-.38a1.1 1.1 0 0 1 0-.18.59.59 0 0 1 0-.11.21.21 0 0 0 0-.12c-.3-3.22-3.46-5.4-6.32-6.53a.24.24 0 0 0-.33.18c-.35 3.77 3.37 6.09 6.33 7.67" fill="#B4DD7F"/><path d="M310.34 6.74s0-1.09.13-1.94c.13-.85.18-1.23.18-1.23a1.67 1.67 0 0 0-.62.88c-.11.355-.2.715-.27 1.08 0 0-.47-.75-.72-1.21l-.36-.63c-.04.48-.04.96 0 1.44a4 4 0 0 0 .18.76s-.51-.64-.87-1a2.15 2.15 0 0 0-.76-.54s.26.5.62 1.25.65 1.66.65 1.66l1.86-.48M314.62 16.79s1.62-2.69.77-5.12A4.83 4.83 0 0 0 309 8.53c-3 1.22-4.66 4.52-2.91 7.44 1.75 2.92 3.62 2.9 4.47 3.08.85.18 4.09-2.26 4.09-2.26" fill="#C6E69F"/><path d="M306.22 41.82s5.56-1.93 7.44-.65c1.88 1.28 1.2 4 1.39 5.3a2.56 2.56 0 0 0 1.1 1.83s-2.83 1.77-4.89 1.51c-2.06-.26-.74-1.39-2.66-1.16-1.92.23-5.64.52-5.56-1.93.08-2.45 3.18-4.9 3.18-4.9M312.53 30.7s3.09-4.81 2.64-8.92a8.08 8.08 0 0 0-3-5.81l-.65.06s3.76 3.53 1.57 9.8a21.68 21.68 0 0 1-6.85 9.64l3 1.66 3.29-6.43zM306 40.4s-1.9-6.09-7.48-7.08c-5.58-.99-8.3-.07-11.63.25s-5.17 0-5.13.47c.04.47 4.27 7.89 11.93 9C301.35 44.15 306 40.4 306 40.4" fill="#B4DD7F"/><path d="M302 38.4a10.28 10.28 0 0 0-6.74-2 40.54 40.54 0 0 1-8.46-.35 11.55 11.55 0 0 1-1.94-.48s5.43 1.52 8.62 1.42a20.94 20.94 0 0 1 6.35.58 6.24 6.24 0 0 1 2.17.87" fill="#E9F7DE"/><path d="M312.23 18.35s-2.8-.21-3.63-.82c-.83-.61-.53-1-.17-1.12a3.43 3.43 0 0 1 1.15.11s-.05-.86.37-1 1.23 1 1.23 1 .55-1.61 1.2-1.65c.65-.04.63 1 .63 1s1.11-1.05 1.6-.79-.41 1.31-.94 2a9 9 0 0 1-1 1.09l-.45.23" fill="#C6E69F"/><path d="M306.38 35.07a15.48 15.48 0 0 0 .44-12.83c-2.82-7.24-8.68-10.36-9.28-9.84-.6.52-2.15 5.26 1.25 12.57 3.4 7.31 7.59 10.1 7.59 10.1" fill="#B4DD7F"/><path d="M307.46 32.49a32.27 32.27 0 0 0-2.38-9.49 32.89 32.89 0 0 0-4.74-7.46 49.62 49.62 0 0 1 4.86 8.91 33 33 0 0 1 2.26 8.09" fill="#E9F7DE"/><path d="M26.83 60.1c-.07-5.77-3.06-11.25-5.63-16.28-.15-.29-.3-.57-.46-.85a5.86 5.86 0 0 1-2.88-.51 37.69 37.69 0 0 1-4.21-1.87A29.11 29.11 0 0 1 4.54 34c-.37-.42.3-1 .66-.54a27.38 27.38 0 0 0 8.58 6.27 40.52 40.52 0 0 0 3.79 1.74 7 7 0 0 0 2.74.74c-3.19-5.67-7.51-10.48-11.83-15.32a.425.425 0 0 1 .63-.57c2.53 2.82 5.08 5.62 7.4 8.62a56.13 56.13 0 0 1 5.68 9c.47.91.94 1.84 1.41 2.78a7.78 7.78 0 0 0 .4-3.31c0-1.33-.09-2.65-.15-4-.17-3.82-1.43-7.65-2.61-11.27-.17-.53.66-.73.83-.2a47.24 47.24 0 0 1 2.66 12 37.06 37.06 0 0 1 .09 4.59 5.61 5.61 0 0 1-.79 3c2 4.11 3.71 8.48 3.65 13a.41.41 0 0 1 0 .16l-.85-.59z" fill="#90AD72"/><path d="M6.29 31.86a3.85 3.85 0 0 0-4.15-.05A3.38 3.38 0 0 0 .72 36c.21.437.563.79 1 1 2.69 1.89 7.53-2.72 4.53-5.14M22.52 23.88l-.05-.05a3.15 3.15 0 0 0-2-1.16 2.76 2.76 0 0 0-3.24 3.06c.32 1.89 2.62 2.51 4.36 2.15 2.08-.44 2.16-2.69.89-4M5 22.74c-1.32 1.06-.72 2.8.2 3.87a4.06 4.06 0 0 0 2.41 1.23c.288.045.582.045.87 0 1.78-.24 2.43-2.7 1.54-4.08-.89-1.38-3.49-2.27-5-1" fill="#C5E49B"/><path d="M2.59 32.38a1.5 1.5 0 0 0-.36.55.42.42 0 0 0-.06.14.412.412 0 0 0 .75.34.35.35 0 0 1 .08-.14l.07-.09a3.17 3.17 0 0 0 .23-.36.41.41 0 0 0-.11-.48.42.42 0 0 0-.58.05M5.48 23.11a.42.42 0 0 0-.13.49v.09a.41.41 0 0 0 .54.23 2.89 2.89 0 0 0 .64-.46.42.42 0 0 0 .08-.46.4.4 0 0 0-.54-.23 2.78 2.78 0 0 1-.4.16.29.29 0 0 0-.19.15M19.28 23.28a.68.68 0 0 0-.33.91.45.45 0 0 0 .43.2c.56-.11 1.09-.08 1.46-.62a.46.46 0 0 0-.19-.65 1.2 1.2 0 0 0-1.07.05.91.91 0 0 0-.3.11" fill="#FCF9F5"/><path d="M64.2 49.94a4.18 4.18 0 0 0 2.08-4 3.65 3.65 0 0 0-3.38-3.44 2.33 2.33 0 0 0-1.44.52c-3.15 1.67-1.07 8.61 2.74 6.91" fill="#C5E49B"/><path d="M173.46 62.66c-1.85-.95-3.19-2.87-4.32-4.55-1-1.43-1.85-2.94-2.7-4.46A6.85 6.85 0 0 0 170 50.8a12.28 12.28 0 0 0 2.27-7.33.37.37 0 0 0-.43-.3c-3.23.59-6.94 3.06-7.57 6.34a51 51 0 0 1-3.37-8.59 8.61 8.61 0 0 0 5-2 9.72 9.72 0 0 0 2.6-5.92.36.36 0 0 0-.52-.36c-3 1.05-6.72 2.64-7.78 5.7-.26-1.18-.46-2.37-.6-3.56a.31.31 0 0 0-.16-.26c1.68-1.74 1.88-4.4 1.57-6.68-.31-2.28-1.35-5-3.3-6.48a.38.38 0 0 0-.67-.21A9.64 9.64 0 0 0 155 28.4a14.19 14.19 0 0 0 3 6.37c.15 1.14.34 2.28.57 3.41a4.88 4.88 0 0 0-2.17-2.52c-2.12-1-4.84-.15-7 .13a.39.39 0 0 0-.28.53c1.05 1.8 2.18 3.76 4 4.89 1.82 1.13 4.13.62 6-.51a.39.39 0 0 0 .1-.08 58.87 58.87 0 0 0 3.76 10.18c.31.67.65 1.34 1 2a9 9 0 0 0-5.16.14c-3 .88-4.4 3.67-6 6.12a.38.38 0 0 0 .27.59 13.2 13.2 0 0 0 7-.75 12.18 12.18 0 0 0 4.67-4.67 46.19 46.19 0 0 0 2.48 4c1.51 2.23 3.27 4.73 5.66 6.08a.41.41 0 0 0 .59-.24 1.14 1.14 0 0 0 .29-.29c.16-.256.22-.562.17-.86a.34.34 0 0 0-.39-.29M94 42.45a3.58 3.58 0 0 0-1.63-1.4A3.77 3.77 0 0 0 90 41c-2.22.67-2.31 2.77-1.75 4.76-1.67-1.51-4.87-2.4-6.51-.53a1.13 1.13 0 0 0-.1.13 3.64 3.64 0 0 0-.92 3.42A9.11 9.11 0 0 0 82.44 52a7 7 0 0 0-3.83.56 4.19 4.19 0 0 0-2.41 3.09A5 5 0 0 0 78 59.8a12.81 12.81 0 0 0 5.62 3c5.08 1.37 10.37 0 15.47-.36a.21.21 0 0 0 .16-.24 83.34 83.34 0 0 0-3.43-15 53.7 53.7 0 0 0-.79-2.45 9.78 9.78 0 0 0-1-2.25" fill="#C6E69F"/><path d="M235.08 10.56c-.19.08-.39.16-.58.22l-.4.17c-.94.43-1.905.8-2.89 1.11a10.86 10.86 0 0 1-1.05-1 4.36 4.36 0 0 0 .84-1.12 2.49 2.49 0 0 1 1.83-1.5 4.5 4.5 0 0 1 1.33.18c.28.095.574.142.87.14.163.399.28.815.35 1.24a6.54 6.54 0 0 1-.3.59M233.93 7.36c-.49-.22-1-.47-1.43-.71a3.09 3.09 0 0 1 1.64.75h-.19" fill="#90AD72"/><path d="M217.62 16.94c.083-.24.197-.47.34-.68a19 19 0 0 0 2.83-1.14l.36-.18c1.89.87 4.51 3 1.64 4.58-1.85 1-6.07.15-5.17-2.58" fill="#BFD99A"/><path d="M217.9 16.36a4.87 4.87 0 0 1 2.21-1.84l.85.34c.114.042.224.092.33.15-.18.087-.36.167-.54.24-.94.41-1.9.75-2.85 1.11" fill="#B1CB8C"/><path d="M234.12 7.38c0 .37-.31.49-.57.58a1.6 1.6 0 0 0-.77.57c-.294.14-.578.3-.85.48a3.22 3.22 0 0 0-1.08 1.5.9.9 0 0 1-.26.32l-.37.32-.16-.17a4.67 4.67 0 0 1 .61-4.21 4.39 4.39 0 0 1 2.36 0l.86.43.23.18M234.25 11.08c-.17.12-.36.2-.53.3a2.65 2.65 0 0 0-1.11 1.2 2.54 2.54 0 0 1-.88-.13c-.21-.14-.41-.29-.61-.45l2.06-.79 1.32-.5c.06.22-.12.29-.25.37" fill="#A2C07E"/><path d="M232.48 12.58a2 2 0 0 1 .6-.85c.35-.27.74-.48 1.1-.73.12-.08.21-.2.32-.29l.54-.24.12-.06c-.64 1.25-1.54 2.17-2.68 2.17M232.78 8.53a.63.63 0 0 1 .49-.57 1.16 1.16 0 0 0 .82-.6c.44.373.783.846 1 1.38l.06.16a3.31 3.31 0 0 1-.7-.06c-.54-.12-1.08-.21-1.63-.31M231.27 8.51a2 2 0 0 0 1.32-.68.46.46 0 0 0 .08-.36c-.08-.12-.22-.29-.34-.28a1.73 1.73 0 0 0-1.32.67c-.23.32-.16.58.26.65" fill="#B1CB8C"/><path d="M232.13 25.4c.62.59 1 .59 1.56 0a5.25 5.25 0 0 1 .94-.75c.6-.37.62-.41.42-1.07l.26-.31a6.58 6.58 0 0 1-.53 4.65 6.72 6.72 0 0 1-.83.86c-.76.29-1.5.63-2.27.88a6.27 6.27 0 0 1-2.07.11c-.3 0-.36-.2-.27-.45a.92.92 0 0 1 .8-.6 2.43 2.43 0 0 0 1-.38c.64-.5.65-.55-.06-1-.09-.06-.18-.1-.26-.16-.4-.27-.43-.42-.19-.87.42-.34.8-.72 1.25-1a.27.27 0 0 1 .22.11M226.76 27.45a.51.51 0 0 1-.2-.73 2.25 2.25 0 0 0 .08-.24c.08-.3 0-.48-.36-.48a1.73 1.73 0 0 1-.6-.07h-.07a7.69 7.69 0 0 1 3.06-5.19 21.9 21.9 0 0 1 2.57-.12 1.27 1.27 0 0 0-.33.53.42.42 0 0 1-.17.18c-.31.139-.549.4-.66.72a1.42 1.42 0 0 1-.68.71 6.27 6.27 0 0 1-1.61.71 3 3 0 0 0-1.07.56.69.69 0 0 0-.13 1.15c.45.55.67 1.26 1.26 1.71a.75.75 0 0 1-.27.46.61.61 0 0 1-.82.13" fill="#A2C07E"/><path d="M231.63 29.52c.87-.34 1.73-.71 2.61-1a7.83 7.83 0 0 1-1.69 1.2l-.92-.19" fill="#B1CB8C"/><path d="M229.09 24.85a1.22 1.22 0 0 1 .37-.8c.38-.44.8-.85 1.17-1.3a1 1 0 0 0 .16-1.27.42.42 0 0 1-.06-.29 4.35 4.35 0 0 1 .33-.6h1.35a6.82 6.82 0 0 1 1.76 1l-.17.11a.62.62 0 0 0-.16 1.11c.224.229.508.388.82.46.16 0 .35 0 .42.21.37.48.3.83-.13 1.12a9 9 0 0 0-1.28 1 1 1 0 0 1-1.69-.33.63.63 0 0 0-.94 0 2 2 0 0 1-.74.42.88.88 0 0 1-1.21-.89" fill="#90AD72"/><path d="M232 25.31c-.17-.46-.37-.54-.78-.28a3.3 3.3 0 0 1-.85.52c-.28.07-.75.08-.9-.09a1 1 0 0 1-.12-.93c.324-.46.679-.897 1.06-1.31.27-.344.5-.716.69-1.11.18-.38-.14-.65-.35-.92-.22.15-.57.25-.63.44-.3 1-1.19 1.22-2 1.57a10 10 0 0 0-1.44.67c-.61.4-.62.81-.19 1.37.23.3.37.67.61 1 .227.25.475.48.74.69a16.57 16.57 0 0 1 1.61-.86 1 1 0 0 1 1.26.41l1.29-1.17M234.69 23.44a4.37 4.37 0 0 1-1.05-.61c-.46-.43-.24-.91.42-1.29l.29.25a3.7 3.7 0 0 1 1 1.54l-.25.19a1.29 1.29 0 0 1-.39-.08" fill="#B1CB8C"/><path d="M225.55 26.28a9.28 9.28 0 0 1 .21-1.12h.07c.27.18.498.416.67.69.09 0 .28.2.28.31v.06c.58.55 1.14.15 1.59-.37a3 3 0 0 1 .42-1.39c.62-.94 2.5-1.25 2.33-2.46a1.88 1.88 0 0 1-.49-1.47h.94c-.22.13-.26.32-.12.58a.31.31 0 0 1 .21.18 2.7 2.7 0 0 0 .22.33c.147.15.304.29.47.42a.43.43 0 0 1-.43.73 2.36 2.36 0 0 1-1.13 1.43.65.65 0 0 1 .35.2l.91-.72c.54-.43 1.13.25.83.77l-.31.5a1.68 1.68 0 0 1 1.19-.25.05.05 0 0 1 0 .08 3.86 3.86 0 0 1-1.08 1.05c-.27.14-.56.2-.83.33a1.3 1.3 0 0 0-.25.2 1.77 1.77 0 0 0-.08.4 4.3 4.3 0 0 0 .07.46l.07.11c.05.09.08.188.09.29a.2.2 0 0 1 0 .26.64.64 0 0 1-.06.18 1.71 1.71 0 0 1-.43.54c.07.15.09.36.16.48a.83.83 0 0 0 .53.35h.2l.51.1a8.63 8.63 0 0 1-1.55.67 6.23 6.23 0 0 1-5.65-4" fill="#90AD72"/><path d="M232.19 27.27a.62.62 0 0 1 .32-.75 1.28 1.28 0 0 1 1.23-.05.8.8 0 0 1 .57 1c-.22.66-1 .59-1.52.33a1.1 1.1 0 0 1-.6-.52" fill="#90AD72"/><path d="M214.26 43.84c1.51 2.21 4.15 3.61 6.46 4.8 2 1 4 1.9 6.08 2.75a8.76 8.76 0 0 1 3-4.88 15.48 15.48 0 0 1 8.92-4 .47.47 0 0 1 .45.5c-.23 4.18-2.76 9.25-6.81 10.55a65.38 65.38 0 0 0 11.43 3 10.86 10.86 0 0 1 1.72-6.65c1.64-2.33 4.39-3.51 7-4.25a.48.48 0 0 1 .55.61c-.85 4-2.26 8.91-6 10.72 1.53.15 3.07.23 4.61.23a.39.39 0 0 1 .35.16c1.93-2.39 5.27-3 8.21-3 2.94 0 6.56 1 8.74 3.21a.48.48 0 0 1 .37.83 12.17 12.17 0 0 1-8.82 3.7 18.24 18.24 0 0 1-8.56-2.88c-1.46 0-2.94-.08-4.4-.2a6.29 6.29 0 0 1 3.53 2.37c1.64 2.54 1 6.12 1 9a.48.48 0 0 1-.62.43c-2.46-1-5.13-2.2-6.85-4.34-1.72-2.14-1.45-5.14-.32-7.65l.09-.13A75 75 0 0 1 231 55.47c-.91-.3-1.8-.62-2.69-1a11.65 11.65 0 0 1 .65 6.57c-.63 4-3.94 6.13-6.78 8.57a.48.48 0 0 1-.79-.25c-.69-3-1.15-6.09-.18-9 .89-2.71 3-4.83 5.16-6.62-1.87-.77-3.72-1.61-5.51-2.54-3.07-1.58-6.52-3.43-8.62-6.27a.53.53 0 0 1 .21-.78 1.81 1.81 0 0 1 .32-.41 1.53 1.53 0 0 1 1.07-.34.42.42 0 0 1 .43.44" fill="#C6E69F"/></g></g></svg>